<svg id="Layer_1" enable-background="new 0 0 512 512" viewBox="0 0 512 512" xmlns="http://www.w3.org/2000/svg" xmlns:xlink="http://www.w3.org/1999/xlink"><clipPath id="SVGID_2_"><ellipse id="SVGID_1_" cx="256" cy="266.952" rx="245" ry="245.048"/></clipPath><clipPath id="SVGID_4_"><ellipse id="SVGID_3_" cx="256" cy="266.952" rx="245" ry="245.048"/></clipPath><clipPath id="SVGID_6_"><ellipse id="SVGID_5_" cx="256" cy="266.952" rx="245" ry="245.048"/></clipPath><g><g><g><ellipse cx="256" cy="266.952" fill="#65dffc" rx="245" ry="245.048"/></g><g><path d="m256 421.982c-110.28 0-200-89.737-200-200.039s89.72-200.039 200-200.039 200 89.737 200 200.039-89.72 200.039-200 200.039z" fill="#9ae6fd"/></g><g><g><g clip-path="url(#SVGID_2_)"><path d="m0 319.339h512v65.66h-512z" fill="#ffa727"/></g></g></g></g><g><g><g><g><g><g><path d="m91.103 77.949 14.443 9.171 14.429-9.171-3.384-17.979h-22.104z" fill="#ffa399"/></g><g><path d="m106.022 0c-2.486 0-4.898.285-7.198.819-3.277.762-5.609 3.66-5.609 7.021-2.12-2.073-5.489-2.113-7.676-.11-5.083 4.655-8.219 11.036-8.219 18.075 0 14.252 12.85 25.805 28.701 25.805s28.701-11.553 28.701-25.805-12.849-25.805-28.7-25.805z" fill="#464266"/></g><g><path d="m105.596 63.897c-10.481 0-18.978-8.497-18.978-18.978v-21.238c0-3.255 2.638-5.893 5.893-5.893h26.17c3.255 0 5.893 2.638 5.893 5.893v21.238c0 10.481-8.497 18.978-18.978 18.978z" fill="#ffc0b3"/></g><g><path d="m94.618 44.919v-21.238c0-3.254 2.638-5.893 5.893-5.893h-8c-3.255 0-5.893 2.638-5.893 5.893v21.238c0 10.481 8.497 18.978 18.978 18.978 1.373 0 2.71-.153 4-.43-8.559-1.838-14.978-9.44-14.978-18.548z" fill="#ffb5a9"/></g><g><ellipse cx="105.596" cy="18.165" fill="#464266" rx="17.746" ry="8.059"/></g></g><g><path d="m139.93 181.975h-25.222l-9.169-9.171-9.169 9.171h-25.222l5.416-31.75-5.416-71.714 21.935-10.834 12.44 17.177 12.473-17.177 21.934 10.834-5.416 71.714z" fill="#464266"/></g><g><path d="m108.673 133.828 23.005-55.317-13.682-10.834-12.473 17.177-12.44-17.177-13.683 10.834 23.005 55.317z" fill="#fff"/></g><g><g><path d="m93.028 67.677 15.209 20.907-18.011 15.775-13.535-31.066z" fill="#f4ebfb"/></g><g><path d="m118.018 67.677-15.209 20.907 18.011 15.775 13.426-30.814z" fill="#f4ebfb"/></g><g><path d="m170.151 133.733-14.2-45.967c-1.789-5.791-6.322-10.323-12.112-12.111l-25.843-7.977 14.395 29.708 13.66 41.653-17.942 44.083 10.62 11.927 29.362-46.039c2.897-4.542 3.651-10.129 2.06-15.277z" fill="#464266"/></g><g><path d="m41.224 133.733 14.2-45.967c1.789-5.791 6.322-10.323 12.112-12.111l25.843-7.977-14.394 29.708-13.66 41.653 17.942 44.083-10.62 11.927-29.362-46.039c-2.898-4.542-3.652-10.129-2.061-15.277z" fill="#464266"/></g><g><path d="m126.602 187.091-.649-.085c-2.764-.362-5.484.921-6.962 3.285.587 6.976 4.937 13.075 11.342 15.9l.225.099c2.968-2.822 4.545-6.807 4.31-10.896l-.003-.058" fill="#ffc0b3"/></g></g><path d="m110.45 96.304 3.248-3.248-8.159-8.161-8.159 8.161 3.248 3.248-3.28 39.554 8.191 7.708 8.191-7.708z" fill="#db3ab1"/></g><g><g><path d="m40.063 158.09h131.25v150.029h-131.25z" fill="#d8780f"/></g><g><path d="m55.063 233.119v-75.029h-15v150.029h131.25v-15h-56.25c-33.138 0-60-26.863-60-60z" fill="#bc6c0c"/></g></g><g><path d="m171.313 308.119h-131.25l-9.375 14.065v17.398h150v-17.398z" fill="#b2630d"/></g><path d="m154.132 93.49-7.239-3.759c-.133-3.552-2.091-6.94-5.455-8.729l-11.59-6.163c-5.029-2.675-11.274-.765-13.948 4.264l-.001.003c-2.673 5.028-.764 11.272 4.264 13.946l11.59 6.164c3.487 1.854 7.557 1.501 10.618-.564l7.154 3.715c4.573 2.375 7.414 7.052 7.414 12.206v34.61c0 2.762 2.239 5 5 5s5-2.238 5-5v-34.61c-.001-8.903-4.908-16.981-12.807-21.083z" fill="#92a5b7"/><g><path d="m175.193 158.558h-136.875c-6.213 0-11.25-5.038-11.25-11.252 0-6.214 5.037-11.252 11.25-11.252h136.875c6.213 0 11.25 5.038 11.25 11.252 0 6.215-5.037 11.252-11.25 11.252z" fill="#b2630d"/></g><g><path d="m171.313 270.612h-46.25c-5.523 0-10-4.477-10-10v-54.546c0-5.523 4.477-10 10-10h46.25z" fill="#b2630d"/></g></g><g><g><g><path d="m309.697 171.867h-55.407c-11.046 0-20 8.954-20 20v69.17c0 11.046 8.954 20 20 20h55.407c11.046 0 20-8.954 20-20v-69.17c0-11.046-8.955-20-20-20z" fill="#464266"/></g><g><g><g><path d="m324.796 215.234-6.721-34.659c-1.438-7.415-6.929-13.388-14.196-15.441l-9.21-2.603-4.427-1.788-.609.577c-.055.052-.115.096-.171.146h-4.283v2.436c-3.891 1.165-8.242.097-11.227-3.159l-4.645 1.79-9.2 2.6c-7.267 2.054-12.758 8.026-14.196 15.441l-6.721 34.659c-.294 1.515-.415 3.059-.36 4.602l.756 21.438 10.289.061 3.628-22.092 5.306-26.646.683 41.846c0 .885.523 1.678 1.315 1.992 12.671 5.023 26.612 5.309 39.461.81l2.41-.844c.83-.291 1.39-1.104 1.39-2.02l1.107-41.783 5.306 26.646 3.628 22.092 10.289-.061.756-21.438c.056-1.543-.065-3.087-.358-4.602z" fill="#8f3cd6"/></g><g><path d="m281.971 173.662c-5.268 0-9.539-4.271-9.539-9.539v-22.27c0-.546.442-.988.988-.988h17.102c.546 0 .988.442.988.988v22.27c0 5.269-4.271 9.539-9.539 9.539z" fill="#ffa399"/></g></g><g><path d="m282.185 113.651c-1.873 0-3.69.214-5.423.617-2.469.574-4.226 2.758-4.226 5.29-1.598-1.562-4.135-1.592-5.783-.083-3.83 3.508-6.192 8.315-6.192 13.618 0 10.738 9.681 19.442 21.624 19.442s21.624-8.705 21.624-19.442-9.682-19.442-21.624-19.442z" fill="#464266"/></g><g><path d="m285.146 120.543h-6.32c-6.569 0-11.894 5.324-11.894 11.89v14.312c0 2.572.835 5.076 2.378 7.134l3.222 4.295c1.673 2.231 4.026 3.905 6.733 4.579 4.762 1.187 9.61-.631 12.435-4.397l3.359-4.478c1.544-2.058 2.378-4.561 2.378-7.133v-14.47c0-6.457-5.221-11.7-11.68-11.729z" fill="#ffc0b3"/></g><g><path d="m278.532 158.174-3.222-4.295c-1.544-2.058-2.378-4.561-2.378-7.134v-14.312c0-6.567 5.325-11.89 11.894-11.89h-6c-6.569 0-11.894 5.323-11.894 11.89v14.312c0 2.572.834 5.075 2.378 7.134l3.222 4.295c1.673 2.231 4.026 3.905 6.733 4.579 2.007.5 4.028.461 5.908-.027-2.667-.69-4.987-2.347-6.641-4.552z" fill="#ffb5a9"/></g><g><path d="m288.971 119.529-13.618-.343c-5.015.874-9.149 4.905-9.149 9.923v1.938l5.079 3.494c5.074 3.49 11.307 4.869 17.379 3.845l-.12-.111c-1.729-1.604-2.932-3.694-3.45-5.995 2.569 2.022 5.619 3.343 8.851 3.831l.074.011-.315-.284c-1.659-1.497-2.773-3.503-3.166-5.703l.495.539c1.701 1.854 4.092 2.922 6.608 2.954l.032-4.107c.037-4.869-3.833-8.869-8.7-9.992z" fill="#464266"/></g></g></g><g><g><path d="m436.259 171.858h-55.407c-11.046 0-20 8.954-20 20v69.17c0 11.046 8.954 20 20 20h55.407c11.046 0 20-8.954 20-20v-69.17c0-11.046-8.954-20-20-20z" fill="#464266"/></g><g><path d="m435.744 157.07c0-4.039-2.28-7.543-5.622-9.31.013-4.127.106-12.222.106-12.732 0-11.905-9.635-21.555-21.521-21.555s-21.522 9.651-21.522 21.555c0 .811.176 8.821.188 12.732-3.342 1.766-5.622 5.271-5.622 9.31 0 4.044 2.285 7.551 5.634 9.316-.007 2.087-.019 3.687-.037 4.518-.274 12.909 6.617 11.924 11.963 9.252 3.729-1.864 6.08-5.676 6.064-9.84l-.053-14.024c1.105.175 2.229.292 3.384.292 1.183 0 2.335-.121 3.466-.305l-.053 14.037c-.016 4.165 2.335 7.977 6.064 9.84 5.346 2.672 12.237 3.657 11.963-9.252-.018-.831-.03-2.431-.037-4.518 3.349-1.765 5.635-5.272 5.635-9.316z" fill="#464266"/><path d="m451.358 215.225-6.721-34.66c-1.438-7.415-6.929-13.387-14.196-15.441l-12.974-3.667h-5.725l-12.375.078-12.696 3.588c-7.267 2.054-12.758 8.026-14.196 15.441l-6.721 34.66c-.294 1.515-.415 3.059-.36 4.602l.756 21.438 10.289.061 3.628-22.092 5.306-26.647.033-.007 2.63 20.082-2.479 15.545-4.649 30.357h55.679l-4.649-30.357-2.479-15.545 2.49-19.018 5.096 25.59 3.628 22.092 10.289-.061.756-21.438c.055-1.542-.066-3.086-.36-4.601z" fill="#db3ab1"/><g><path d="m417.467 161.458h-.579v-6.334h-16.627v6.334h-.51l-6.956 1.966v2.449c0 4.354 1.779 8.519 4.924 11.53l.007.006c6.179 5.915 15.922 5.912 22.097-.007 3.141-3.011 4.916-7.173 4.916-11.523v-2.366z" fill="#ffa399"/></g><g><path d="m411.402 122.928h-5.666c-5.888 0-10.662 4.772-10.662 10.659v12.829c0 2.306.748 4.55 2.132 6.395l2.888 3.85c1.5 2 3.609 3.501 6.036 4.105 4.269 1.064 8.615-.565 11.147-3.941l3.011-4.014c1.384-1.845 2.132-4.089 2.132-6.395v-12.972c0-5.789-4.68-10.489-10.47-10.515z" fill="#ffc0b3"/></g><g><path d="m406.094 156.662-2.888-3.85c-1.384-1.845-2.132-4.089-2.132-6.395v-12.829c0-5.878 4.759-10.643 10.634-10.658l-.307-.001h-5.666c-5.889 0-10.662 4.772-10.662 10.659v12.829c0 2.306.748 4.55 2.132 6.395l2.888 3.85c1.5 2 3.609 3.5 6.036 4.105 1.916.478 3.846.409 5.622-.113-2.265-.662-4.236-2.098-5.657-3.992z" fill="#ffb5a9"/></g><g><path d="m406.502 121.027c2.477 2.211.658 10.229-3.962 14.788-2.666 2.631-7.502 5.33-9.469 3.678-2.791-2.344-.239-13.806 6.729-17.671.429-.238 4.723-2.561 6.702-.795z" fill="#464266"/></g></g></g><g><g><path d="m479.898 205.556h-269.046v124.026c0 5.523 4.477 10 10 10h249.046c5.523 0 10-4.477 10-10z" fill="#d8780f"/></g><g><path d="m230.852 239.582v-34.026h-20v124.026c0 5.523 4.477 10 10 10h249.046c5.523 0 10-4.477 10-10v-10h-169.046c-44.183 0-80-35.817-80-80z" fill="#bc6c0c"/></g></g><g><g><path d="m476.625 205.504h-262.5c-5.178 0-9.375 4.198-9.375 9.377v16.206h.17c1.7 16.896 15.96 30.086 33.3 30.086 10.95 0 20.67-5.26 26.777-13.39 6.107 8.13 15.827 13.39 26.777 13.39s20.67-5.26 26.777-13.39c6.107 8.13 15.827 13.39 26.777 13.39s20.67-5.26 26.777-13.39c6.107 8.13 15.827 13.39 26.777 13.39 10.978 0 20.721-5.286 26.824-13.452 6.104 8.166 15.847 13.452 26.824 13.452 17.341 0 31.601-13.19 33.3-30.086h.17v-16.206c0-5.179-4.197-9.377-9.375-9.377z" fill="#fff"/></g><g><path d="m230.852 205.556h-18.669c-4.245.895-7.433 4.66-7.433 9.173v16.206h.17c1.549 15.4 13.533 27.715 28.773 29.777-1.84-6.733-2.841-13.813-2.841-21.13z" fill="#f4ebfb"/></g></g></g></g><g><g><g clip-path="url(#SVGID_4_)"><g><g><path d="m0 359.586h512v172.418h-512z" fill="#ffc14f"/></g></g><path d="m516.747 382.482h-55.407c-11.046 0-20 8.954-20 20v44.415h-20.593v-44.415c0-11.046-8.954-20-20-20h-55.407c-11.046 0-20 8.954-20 20v44.415h-21.593v-44.415c0-11.046-8.954-20-20-20h-55.407c-11.046 0-20 8.954-20 20v44.415h-21.155v-44.415c0-11.046-8.954-20-20-20h-55.407c-4.312 0-8.295 1.378-11.561 3.699-6.644-.741-15.402 1.494-25.174 1.639v16.9h-34.98v39.095h51.715v3.082h-57.08v68.061h421.302v-24.048c1.702.471 3.488.743 5.34.743h55.407c11.046 0 20-8.954 20-20v-69.17c0-11.046-8.954-20.001-20-20.001z" fill="#40606b"/></g></g><g><g clip-path="url(#SVGID_6_)"><g><path d="m111.826 397.394c-.413-16.453-15.365-29.679-33.764-29.679-2.96 0-5.83.343-8.566.986-3.818.898-6.508 4.32-6.508 8.243-2.441-2.386-6.352-2.556-8.884-.267-6.072 5.491-9.825 13.057-9.825 21.413 0 2.126.245 4.357.707 6.631h-4.924v39.095h72c.001-.001-.156-46.098-.236-46.422z" fill="#464266"/><g><path d="m103.922 422.834h-55.407c-11.046 0-20 8.954-20 20v69.17c0 11.046 8.954 20 20 20h55.407c11.046 0 20-8.954 20-20v-69.17c0-11.046-8.954-20-20-20z" fill="#547b91"/></g></g><g><path d="m339.099 408.903v-12.795c0-16.006-12.975-28.981-28.981-28.981-16.006 0-28.981 12.976-28.981 28.981v12.795c-3.151 2.982-5.127 7.192-5.127 11.873v.007c0 9.034 7.324 16.358 16.359 16.358h35.5c9.035 0 16.359-7.324 16.359-16.358v-.007c-.002-4.681-1.978-8.891-5.129-11.873z" fill="#464266"/><g><g><path d="m337.485 422.834h-55.407c-11.046 0-20 8.954-20 20v69.17c0 11.046 8.954 20 20 20h55.407c11.046 0 20-8.954 20-20v-69.17c0-11.046-8.954-20-20-20z" fill="#547b91"/></g><g><path d="m337.078 517.004c-33.137 0-60-26.863-60-60v-29.17c0-1.542.191-3.037.521-4.479-8.886 2.036-15.521 9.975-15.521 19.479v69.17c0 11.046 8.954 20 20 20h55.407c9.504 0 17.443-6.635 19.479-15.521-1.442.33-2.937.521-4.479.521z" fill="#486b7a"/></g></g></g><g><g><g><path d="m168.772 403.594c-2.015-5.13-6.854-8.208-10.808-6.874s-5.526 6.574-3.512 11.705c2.015 5.13 6.854 8.208 10.808 6.874 3.955-1.334 5.527-6.575 3.512-11.705z" fill="#ffccc0"/></g><g><path d="m216.865 403.594c2.015-5.13 6.854-8.208 10.808-6.874s5.526 6.574 3.512 11.705c-2.015 5.13-6.854 8.208-10.808 6.874-3.955-1.334-5.527-6.575-3.512-11.705z" fill="#ffccc0"/></g></g><g><path d="m192.36 366.692c-2.91 0-5.733.333-8.425.959-3.836.892-6.565 4.284-6.565 8.219-2.482-2.426-6.425-2.473-8.985-.129-5.95 5.449-9.621 12.918-9.621 21.158 0 16.683 15.041 39.807 33.596 39.807s33.596-23.125 33.596-39.807-15.042-30.207-33.596-30.207z" fill="#464266"/></g><g><g><path d="m220.485 422.834h-55.407c-11.046 0-20 8.954-20 20v69.17c0 11.046 8.954 20 20 20h55.407c11.046 0 20-8.954 20-20v-69.17c0-11.046-8.954-20-20-20z" fill="#547b91"/></g><g><path d="m220.078 517.004c-33.137 0-60-26.863-60-60v-29.17c0-1.542.191-3.037.521-4.479-8.886 2.036-15.521 9.975-15.521 19.479v69.17c0 11.046 8.954 20 20 20h55.407c9.504 0 17.443-6.635 19.479-15.521-1.442.33-2.937.521-4.479.521z" fill="#486b7a"/></g></g></g><g><path d="m472.34 400.001c0-3.29-1.711-6.174-4.286-7.83 1.403-2.721 1.443-6.075-.202-8.924s-4.568-4.491-7.626-4.637c-.146-3.059-1.788-5.983-4.636-7.627s-6.201-1.605-8.922-.202c-1.655-2.576-4.539-4.287-7.828-4.287s-6.173 1.711-7.828 4.287c-2.721-1.403-6.074-1.443-8.922.202s-4.49 4.569-4.636 7.627c-3.058.146-5.981 1.788-7.626 4.637s-1.605 6.202-.202 8.924c-2.576 1.656-4.286 4.54-4.286 7.83s1.711 6.174 4.286 7.829c-1.403 2.722-1.443 6.075.202 8.924s4.568 4.491 7.626 4.637c.146 3.059 1.788 5.982 4.636 7.627s6.201 1.605 8.922.202c1.655 2.576 4.539 4.287 7.828 4.287s6.173-1.711 7.828-4.287c2.721 1.403 6.074 1.443 8.922-.202s4.49-4.569 4.636-7.627c3.058-.146 5.981-1.788 7.626-4.637s1.605-6.202.202-8.924c2.575-1.655 4.286-4.539 4.286-7.829z" fill="#464266"/><g><path d="m463.485 422.834h-55.407c-11.046 0-20 8.954-20 20v69.17c0 11.046 8.954 20 20 20h55.407c11.046 0 20-8.954 20-20v-69.17c0-11.046-8.954-20-20-20z" fill="#547b91"/></g><g><path d="m463.078 517.004c-33.137 0-60-26.863-60-60v-29.17c0-1.542.191-3.037.521-4.479-8.886 2.036-15.521 9.975-15.521 19.479v69.17c0 11.046 8.954 20 20 20h55.407c9.504 0 17.443-6.635 19.479-15.521-1.442.33-2.937.521-4.479.521z" fill="#486b7a"/></g></g></g></g></g></g><g><g><path d="m421.148 308.175 6.464 3.535-6.464 3.534-3.536 6.463-3.535-6.463-6.465-3.534 6.465-3.535 3.535-6.463z" fill="#fff"/></g><g><path d="m218.286 70.01 6.464 3.535-6.464 3.535-3.536 6.462-3.536-6.462-6.464-3.535 6.464-3.535 3.536-6.462z" fill="#fff"/></g></g></g></svg>